<svg width="192" height="156" viewBox="0 0 192 156" fill="none" xmlns="http://www.w3.org/2000/svg">
<g clip-path="url(#clip0_1200_22944)">
<circle cx="156" cy="36" r="36" fill="white"/>
<circle cx="168" cy="36" r="24" fill="black"/>
<circle cx="162" cy="30" r="6" fill="white"/>
<circle cx="156" cy="36" r="30" stroke="black" stroke-width="12"/>
<circle cx="72" cy="36" r="36" fill="white"/>
<circle cx="84" cy="36" r="24" fill="black"/>
<circle cx="78" cy="30" r="6" fill="white"/>
<circle cx="72" cy="36" r="30" stroke="black" stroke-width="12"/>
<path fill-rule="evenodd" clip-rule="evenodd" d="M156 0C175.882 0 192 16.1177 192 36C192 55.8823 175.882 72 156 72C136.118 72 120 55.8823 120 36H108C108 55.8823 91.8823 72 72 72C52.1177 72 36 55.8823 36 36H12V60.0098H0V24H38.0508C42.993 10.0181 56.3256 0 72 0C87.6744 0 101.007 10.0181 105.949 24H122.051C126.993 10.0181 140.326 0 156 0ZM72 12C58.7452 12 48 22.7452 48 36C48 49.2548 58.7452 60 72 60C85.2548 60 96 49.2548 96 36C96 22.7452 85.2548 12 72 12ZM156 12C142.745 12 132 22.7452 132 36C132 49.2548 142.745 60 156 60C169.255 60 180 49.2548 180 36C180 22.7452 169.255 12 156 12Z" fill="url(#paint0_linear_1200_22944)"/>
<path d="M7.11328 147V104.725H15.668V147H7.11328ZM26.8594 147L17.1621 133.113L22.582 126.609L36.7324 147H26.8594ZM14.6133 137.742V128.162H15.8438L26.4492 115.594H36.1465L21.6445 132.088H19.7402L14.6133 137.742ZM44.0273 157.342C43.1875 157.342 42.377 157.303 41.5957 157.225C40.8145 157.146 40.1699 157.059 39.6621 156.961V150.604C39.9746 150.662 40.375 150.721 40.8633 150.779C41.3516 150.857 41.9082 150.896 42.5332 150.896C43.8223 150.896 44.8379 150.682 45.5801 150.252C46.3223 149.822 46.8789 149.08 47.25 148.025L47.6309 147L36.5273 115.594H45.9316L53.0215 141.844L51.8789 140.145H53.4902L52.3477 141.844L59.4375 115.594H68.4609L57.6797 147.557C56.8594 150.018 55.8242 151.961 54.5742 153.387C53.3438 154.812 51.8594 155.828 50.1211 156.434C48.3828 157.039 46.3516 157.342 44.0273 157.342ZM73.7344 147V122.039H69.457V115.594H73.7344V113.074C73.7344 111.023 74.0762 109.334 74.7598 108.006C75.4629 106.678 76.5664 105.691 78.0703 105.047C79.5938 104.402 81.5957 104.08 84.0762 104.08C84.8574 104.08 85.6484 104.119 86.4492 104.197C87.25 104.256 87.8945 104.334 88.3828 104.432V110.086C88.0898 110.027 87.748 109.988 87.3574 109.969C86.9668 109.949 86.5762 109.939 86.1855 109.939C84.7793 109.939 83.7441 110.232 83.0801 110.818C82.416 111.404 82.084 112.264 82.084 113.396V115.594H88.3242V122.039H82.2891V147H73.7344ZM105.023 147V104.725H113.578V147H105.023ZM124.77 147L115.072 133.113L120.492 126.609L134.643 147H124.77ZM112.523 137.742V128.162H113.754L124.359 115.594H134.057L119.555 132.088H117.65L112.523 137.742ZM141.938 157.342C141.098 157.342 140.287 157.303 139.506 157.225C138.725 157.146 138.08 157.059 137.572 156.961V150.604C137.885 150.662 138.285 150.721 138.773 150.779C139.262 150.857 139.818 150.896 140.443 150.896C141.732 150.896 142.748 150.682 143.49 150.252C144.232 149.822 144.789 149.08 145.16 148.025L145.541 147L134.438 115.594H143.842L150.932 141.844L149.789 140.145H151.4L150.258 141.844L157.348 115.594H166.371L155.59 147.557C154.77 150.018 153.734 151.961 152.484 153.387C151.254 154.812 149.77 155.828 148.031 156.434C146.293 157.039 144.262 157.342 141.938 157.342ZM171.645 147V122.039H167.367V115.594H171.645V113.074C171.645 111.023 171.986 109.334 172.67 108.006C173.373 106.678 174.477 105.691 175.98 105.047C177.504 104.402 179.506 104.08 181.986 104.08C182.768 104.08 183.559 104.119 184.359 104.197C185.16 104.256 185.805 104.334 186.293 104.432V110.086C186 110.027 185.658 109.988 185.268 109.969C184.877 109.949 184.486 109.939 184.096 109.939C182.689 109.939 181.654 110.232 180.99 110.818C180.326 111.404 179.994 112.264 179.994 113.396V115.594H186.234V122.039H180.199V147H171.645Z" fill="white"/>
</g>
<defs>
<linearGradient id="paint0_linear_1200_22944" x1="96" y1="0" x2="96" y2="72" gradientUnits="userSpaceOnUse">
<stop stop-color="#FF8C00"/>
<stop offset="1" stop-color="#FF5900"/>
</linearGradient>
<clipPath id="clip0_1200_22944">
<rect width="192" height="156" fill="white"/>
</clipPath>
</defs>
</svg>
